<svg width="18" height="12" viewBox="0 0 18 12" fill="none" xmlns="http://www.w3.org/2000/svg">
<path d="M9.7862 11.6C3.77296 11.6 0.343106 7.39582 0.200195 0.400024H3.21231C3.31125 5.53476 5.53186 7.70973 7.29076 8.15818V0.400024H10.127V4.82845C11.8639 4.63786 13.6888 2.61984 14.3044 0.400024H17.1406C16.9086 1.55129 16.4462 2.64135 15.7823 3.60203C15.1183 4.5627 14.2672 5.37333 13.282 5.98321C14.3817 6.54047 15.353 7.32922 16.1318 8.29742C16.9106 9.26562 17.4793 10.3912 17.8002 11.6H14.6781C14.39 10.5501 13.8045 9.61027 12.9949 8.89828C12.1853 8.1863 11.1877 7.73384 10.127 7.59762V11.6H9.7862Z" fill="#212526"/>
</svg>
